<svg xmlns="http://www.w3.org/2000/svg" version="1.1" xmlns:xlink="http://www.w3.org/1999/xlink" xmlns:svgjs="http://svgjs.dev/svgjs" width="2000" height="1252" viewBox="0 0 2000 1252"><g transform="matrix(1,0,0,1,-1.2121212121212466,243.12434376018246)"><svg viewBox="0 0 396 248" data-background-color="#0b1323" preserveAspectRatio="xMidYMid meet" height="1252" width="2000" xmlns="http://www.w3.org/2000/svg" xmlns:xlink="http://www.w3.org/1999/xlink"><g id="tight-bounds" transform="matrix(1,0,0,1,0.2400000000000091,0.4000000000000057)"><svg viewBox="0 0 395.52 247.2" height="247.2" width="395.52"><g><svg></svg></g><g><svg viewBox="0 0 395.52 247.2" height="247.2" width="395.52"><g transform="matrix(1,0,0,1,75.54432,59.81199157894735)"><svg viewBox="0 0 244.43135999999998 127.57601684210529" height="127.57601684210529" width="244.43135999999998"><g><svg viewBox="0 0 244.43135999999998 127.57601684210529" height="127.57601684210529" width="244.43135999999998"><g><svg viewBox="0 0 244.43135999999998 127.57601684210529" height="127.57601684210529" width="244.43135999999998"><g><svg viewBox="0 0 244.43135999999998 127.57601684210529" height="127.57601684210529" width="244.43135999999998"><g id="textblocktransform"><svg viewBox="0 0 244.43135999999998 127.57601684210529" height="127.57601684210529" width="244.43135999999998" id="textblock"><g><svg viewBox="0 0 244.43135999999998 127.57601684210529" height="127.57601684210529" width="244.43135999999998"><g transform="matrix(1,0,0,1,0,0)"><svg width="244.43135999999998" viewBox="3.4 -35.35 68.39999999999999 35.7" height="127.57601684210529" data-palette-color="#4ac6a7"><path d="M3.4 0L3.4-35 10.15-35 10.15-20.55 25.65-20.55 25.65-35 32.4-35 32.4 0 25.65 0 25.65-14.9 10.15-14.9 10.15 0 3.4 0ZM71.2-25.8L65.05-23.9Q63.4-26.95 60.9-28.28 58.4-29.6 55.5-29.6L55.5-29.6Q52.35-29.6 49.85-28.05 47.35-26.5 45.87-23.78 44.4-21.05 44.4-17.5L44.4-17.5Q44.4-13.9 45.82-11.18 47.25-8.45 49.77-6.93 52.3-5.4 55.55-5.4L55.55-5.4Q57.7-5.4 59.57-6.15 61.45-6.9 62.9-8.2 64.35-9.5 65.2-11.25L65.2-11.25 65.2-14.15 55.65-14.15 55.65-19.55 71.8-19.55 71.8-10.4Q70.6-7.5 68.25-5.03 65.9-2.55 62.62-1.1 59.35 0.35 55.35 0.35L55.35 0.35Q51.5 0.35 48.27-0.95 45.05-2.25 42.62-4.63 40.2-7 38.87-10.28 37.55-13.55 37.55-17.5L37.55-17.5Q37.55-21.4 38.87-24.68 40.2-27.95 42.6-30.35 45-32.75 48.25-34.05 51.5-35.35 55.3-35.35L55.3-35.35Q58.8-35.35 61.92-34.23 65.05-33.1 67.47-30.98 69.9-28.85 71.2-25.8L71.2-25.8Z" opacity="1" transform="matrix(1,0,0,1,0,0)" fill="#4ac6a7" class="wordmark-text-0" data-fill-palette-color="primary" id="text-0"></path></svg></g></svg></g></svg></g></svg></g><g></g></svg></g></svg></g></svg></g><g><path d="M119.54 29.694A122.216 122.216 0 0 1 275.98 29.694L264.475 29.694A110.711 110.711 0 0 0 131.045 29.694L119.54 29.694M119.54 217.506A122.216 122.216 0 0 0 275.98 217.506L264.475 217.506A110.711 110.711 0 0 1 131.045 217.506L119.54 217.506" fill="#4ac6a7" stroke="transparent" data-fill-palette-color="tertiary"></path></g></svg></g><defs></defs></svg><rect width="395.52" height="247.2" fill="none" stroke="none" visibility="hidden"></rect></g></svg></g></svg>